<svg id="Layer_5" enable-background="new 0 0 64 64" height="512" viewBox="0 0 64 64" width="512" xmlns="http://www.w3.org/2000/svg"><g><g><g><path d="m14 32h8l5.95 5.31c1.6 1.33 2.86 2.98 3.73 4.81.86 1.83 1.32 3.85 1.32 5.92 0 7.71-6.29 13.96-14.05 13.96h-1.9c-7.76 0-14.05-6.25-14.05-13.96 0-4.14 1.85-8.07 5.05-10.73z" fill="#b4dd7f"/></g><g><path d="m28 23.8c0 .6-.21 1.19-.6 1.67l-5.4 6.53h-8l-5.4-6.53c-.39-.48-.6-1.07-.6-1.67 0-.78.34-1.48.88-1.98.54-.51 1.29-.82 2.12-.82 1.75 0 1.75 1.86 3.5 1.86s1.75-1.86 3.49-1.86c1.76 0 1.76 1.86 3.51 1.86.88 0 1.31-.46 1.75-.93s.87-.93 1.75-.93c.83 0 1.58.31 2.12.82.54.5.88 1.2.88 1.98z" fill="#a0d468"/></g><g><path d="m27 2c1.1 0 2 .9 2 2s-.9 2-2 2h-7v6.17l1.59-1.58c.37-.38.88-.59 1.41-.59s1.04.21 1.41.59c.78.78.78 2.04 0 2.82l-6.41 6.42-6.41-6.42c-.38-.37-.59-.88-.59-1.41s.21-1.04.59-1.41c.37-.38.88-.59 1.41-.59s1.04.21 1.41.59l1.59 1.58v-6.17c0-2.21 1.79-4 4-4z" fill="#fcd770"/></g><g><path d="m56.41 39.59c.38.37.59.88.59 1.41s-.21 1.04-.59 1.41c-.37.38-.88.59-1.41.59s-1.04-.21-1.41-.59l-1.59-1.58v6.17c0 2.21-1.79 4-4 4h-7c-1.1 0-2-.9-2-2s.9-2 2-2h7v-6.17l-1.59 1.58c-.37.38-.88.59-1.41.59s-1.04-.21-1.41-.59c-.78-.78-.78-2.04 0-2.82l6.41-6.42z" fill="#ff826e"/></g><g><path d="m51 2c6.08 0 11 4.92 11 11s-4.92 11-11 11-11-4.92-11-11 4.92-11 11-11z" fill="#ffeaa7"/></g><g><circle cx="47" cy="9" fill="#fcd770" r="2"/></g><g><circle cx="55" cy="17" fill="#fcd770" r="2"/></g></g><g><path d="m28.612 36.567-5.228-4.672 4.796-5.795c.529-.658.82-1.477.82-2.304 0-2.093-1.794-3.796-4-3.796-1.309 0-1.986.721-2.48 1.247-.412.438-.597.616-1.022.616-.427 0-.611-.178-1.023-.617-.338-.36-.769-.806-1.422-1.055l6.07-6.069c.566-.566.878-1.319.878-2.122s-.312-1.556-.878-2.121c-1.095-1.094-2.98-1.139-4.123-.115v-2.764h6c1.654 0 3-1.346 3-3s-1.346-3-3-3h-7c-2.757 0-5 2.243-5 5v3.764c-1.143-1.023-3.027-.979-4.121.115-.566.566-.879 1.32-.879 2.121s.313 1.555.879 2.121l6.067 6.067c-.658.248-1.09.697-1.43 1.059-.411.438-.595.616-1.02.616-.424 0-.607-.178-1.019-.616-.494-.526-1.17-1.247-2.477-1.247-2.206 0-4 1.703-4 3.796 0 .827.291 1.646.829 2.314l4.787 5.786-5.2 4.648c-3.442 2.852-5.416 7.041-5.416 11.495 0 8.249 6.75 14.961 15.046 14.961h1.908c8.296 0 15.046-6.712 15.046-14.961 0-4.454-1.974-8.643-5.388-11.472zm-16.612-24.567c0-.271.102-.516.293-.707s.436-.293.707-.293.516.102.707.293l3.293 3.293v-8.586c0-1.654 1.346-3 3-3h7c.552 0 1 .448 1 1s-.448 1-1 1h-8v9.586l3.293-3.293c.383-.383 1.031-.384 1.414.001.188.188.292.438.292.706s-.104.519-.292.707l-5.707 5.707-5.707-5.707c-.191-.191-.293-.436-.293-.707zm-3 11.796c0-.99.897-1.796 2-1.796.424 0 .607.178 1.019.616.494.526 1.171 1.247 2.478 1.247 1.308 0 1.984-.721 2.479-1.247.41-.438.593-.616 1.018-.616.426 0 .61.178 1.022.616.494.526 1.172 1.247 2.48 1.247s1.985-.721 2.479-1.246c.414-.439.598-.617 1.025-.617 1.103 0 2 .806 2 1.796 0 .379-.131.742-.37 1.039l-5.101 6.165h-7.058l-5.092-6.154c-.248-.308-.379-.671-.379-1.05zm9.954 37.204h-1.908c-7.193 0-13.046-5.814-13.046-12.961 0-3.856 1.71-7.485 4.72-9.979l5.662-5.06h7.236l5.69 5.083c2.982 2.471 4.692 6.1 4.692 9.956 0 7.147-5.853 12.961-13.046 12.961z"/><path d="m19 37v-2h-2v2h-4v6c0 2.206 1.794 4 4 4h2c1.103 0 2 .897 2 2v4h-4c-1.103 0-2-.897-2-2v-1h-2v1c0 2.206 1.794 4 4 4v2h2v-2h4v-6c0-2.206-1.794-4-4-4h-2c-1.103 0-2-.897-2-2v-4h4c1.103 0 2 .897 2 2v1h2v-1c0-2.206-1.794-4-4-4z"/><path d="m51 1c-6.617 0-12 5.383-12 12s5.383 12 12 12 12-5.383 12-12-5.383-12-12-12zm0 22c-5.514 0-10-4.486-10-10s4.486-10 10-10 10 4.486 10 10-4.486 10-10 10z"/><path d="m43.929 12h14.142v2h-14.142z" transform="matrix(.707 -.707 .707 .707 5.745 39.87)"/><path d="m55 14c-1.654 0-3 1.346-3 3s1.346 3 3 3 3-1.346 3-3-1.346-3-3-3zm0 4c-.552 0-1-.448-1-1s.448-1 1-1 1 .448 1 1-.448 1-1 1z"/><path d="m50 9c0-1.654-1.346-3-3-3s-3 1.346-3 3 1.346 3 3 3 3-1.346 3-3zm-4 0c0-.552.448-1 1-1s1 .448 1 1-.448 1-1 1-1-.448-1-1z"/><path d="m50 31.758-7.121 7.12c-.566.566-.878 1.319-.878 2.122s.312 1.556.878 2.121c1.094 1.094 2.979 1.139 4.121.115v2.764h-6c-1.654 0-3 1.346-3 3s1.346 3 3 3h7c2.757 0 5-2.243 5-5v-3.764c1.143 1.023 3.028.979 4.121-.115.567-.566.879-1.32.879-2.121s-.313-1.555-.879-2.121zm5.707 9.949c-.383.383-1.031.383-1.414 0l-3.293-3.293v8.586c0 1.654-1.346 3-3 3h-7c-.552 0-1-.448-1-1s.448-1 1-1h8v-9.586l-3.293 3.293c-.383.383-1.031.384-1.414-.001-.188-.188-.292-.438-.292-.706s.104-.519.292-.707l5.707-5.707 5.707 5.707c.191.191.293.436.293.707s-.102.516-.293.707z"/></g></g></svg>