<svg height="512" viewBox="0 0 512 512" width="512" xmlns="http://www.w3.org/2000/svg"><g id="Flat"><path d="m80 256h40a0 0 0 0 1 0 0v56a0 0 0 0 1 0 0h-64a0 0 0 0 1 0 0v-32a24 24 0 0 1 24-24z" fill="#047fa7"/><path d="m112 96h312v376h-312z" fill="#0093ba"/><path d="m88 72h304v368h-304z" fill="#ccdce5"/><path d="m112 440h280v-344h16v360h-296z" fill="#047fa7"/><g fill="#abbac2"><path d="m88 320h240a16 16 0 0 1 16 16v48a16 16 0 0 1 -16 16h-240a0 0 0 0 1 0 0v-80a0 0 0 0 1 0 0z"/><path d="m288 112h16v16h-16z"/><path d="m320 112h40v16h-40z"/><path d="m272 144h88v16h-88z"/><path d="m272 176h88v16h-88z"/><path d="m272 208h88v16h-88z"/><path d="m272 240h72v16h-72z"/></g><path d="m152 128a24.027 24.027 0 0 1 -24-24v-8h16v8a8 8 0 0 0 16 0v-40a16 16 0 0 0 -32 0v8h-16v-8a32 32 0 0 1 64 0v40a24.027 24.027 0 0 1 -24 24z" fill="#0093ba"/><path d="m56 280a24 24 0 0 0 24 24h232a16 16 0 0 1 16 16v48a16 16 0 0 1 -16 16h-232a24 24 0 0 1 -24-24z" fill="#0093ba"/><path d="m112 336h16v16h-16z" fill="#a1dbe8"/><path d="m144 336h152v16h-152z" fill="#a1dbe8"/><path d="m184 152a56 56 0 1 0 39.6 95.6l-39.6-39.6z" fill="#88bf40"/><path d="m223.6 168.4a55.825 55.825 0 0 0 -39.6-16.4v56z" fill="#ef5249"/><path d="m223.6 168.4-39.6 39.6 39.6 39.6a56 56 0 0 0 0-79.2z" fill="#ffc119"/></g></svg>