<svg id="_x33_0" enable-background="new 0 0 64 64" height="512" viewBox="0 0 64 64" width="512" xmlns="http://www.w3.org/2000/svg" xmlns:xlink="http://www.w3.org/1999/xlink"><linearGradient id="SVGID_1_" gradientUnits="userSpaceOnUse" x1="32" x2="32" y1="63" y2="1"><stop offset="0" stop-color="#9f2fff"/><stop offset="1" stop-color="#0bb1d3"/></linearGradient><path d="m29 43h2v2h-4v2h4v6h-2v2h-2v-2h-2v-2h4v-2h-4v-6h2v-2h2zm-24 16v-22h46v22zm44-2v-2.858c-1.399.364-2.495 1.459-2.858 2.858zm0-18h-2.858c.364 1.399 1.459 2.495 2.858 2.858zm-14.695 0c2.834 1.992 4.695 5.28 4.695 9s-1.861 7.008-4.695 9h9.786c.423-2.507 2.403-4.486 4.91-4.91v-8.18c-2.507-.423-4.486-2.403-4.91-4.91zm2.695 9c0-4.963-4.037-9-9-9s-9 4.037-9 9 4.037 9 9 9 9-4.037 9-9zm-30-9v2.858c1.399-.363 2.495-1.459 2.858-2.858zm0 18h2.858c-.363-1.399-1.459-2.495-2.858-2.858zm14.695 0c-2.834-1.992-4.695-5.28-4.695-9s1.861-7.008 4.695-9h-9.785c-.423 2.507-2.403 4.486-4.91 4.91v8.181c2.507.423 4.486 2.403 4.91 4.91h9.785zm41.305-54v32c0 1.103-.897 2-2 2h-2v22h-4v4h-54v-30h6v-6c0-2.206 1.794-4 4-4h4v6h8v-26c0-1.103.897-2 2-2h36c1.103 0 2 .897 2 2zm-23 4.586 1-1 2 2 2-2 1 1v-4.586h-6zm-15 21.414h20v-12h16v-14h-13v9.414l-3-3-2 2-2-2-3 3v-9.414h-13zm-16-2c0 1.103.897 2 2 2h2v-4h-2c-1.103 0-2 .897-2 2zm44 8h-50v26h50zm4-4h-46c-.732 0-1.409-.212-2-.556v2.556h46v24h2zm4 4v-16h-14v10h12v6zm-12-8h10v-2h-10zm2-6h-2v2h2zm2 2h6v-2h-6z" fill="url(#SVGID_1_)"/></svg>