<svg height="512" viewBox="0 0 64 64" width="512" xmlns="http://www.w3.org/2000/svg"><path d="m3 55h34a0 0 0 0 1 0 0v2a4 4 0 0 1 -4 4h-26a4 4 0 0 1 -4-4v-2a0 0 0 0 1 0 0z" fill="#a8dba8"/><path d="m10 41v-8h-4v22h28v-4h-14a10 10 0 0 1 -10-10z" fill="#cff09e"/><rect fill="#cff09e" height="16" rx="2" width="16" x="45" y="34"/><circle cx="53" cy="42" fill="#79bd9a" r="3"/><circle cx="54" cy="41" fill="#aae1f9" r="1"/><circle cx="27" cy="10" fill="#79bd9a" r="8"/><path d="m25 13v-6l6 3z" fill="#cff09e"/><path d="m48 8v-5h-1a2 2 0 0 0 -2 2v12a2 2 0 0 0 2 2h12a2 2 0 0 0 2-2v-1h-5a8 8 0 0 1 -8-8z" fill="#cff09e"/><path d="m6 19v-7h-3v16h12v-3h-3a6 6 0 0 1 -6-6z" fill="#cff09e"/><path d="m21.29 41.49h4a0 0 0 0 1 0 0v8a2 2 0 0 1 -2 2 2 2 0 0 1 -2-2v-8a0 0 0 0 1 0 0z" fill="#79bd9a" transform="matrix(.866 -.5 .5 .866 -20.12 17.88)"/><path d="m40.25 37.86-17.09 6.4-5-8.66 14.09-11.6z" fill="#cff09e"/><path d="m16.2 36.93h5a0 0 0 0 1 0 0v10a0 0 0 0 1 0 0h-5a3 3 0 0 1 -3-3v-4a3 3 0 0 1 3-3z" fill="#a8dba8" transform="matrix(.866 -.5 .5 .866 -18.66 14.22)"/><path d="m12 42.93h2a0 0 0 0 1 0 0v4a0 0 0 0 1 0 0h-2a2 2 0 0 1 -2-2 2 2 0 0 1 2-2z" fill="#79bd9a" transform="matrix(.866 -.5 .5 .866 -20.86 12.02)"/><g fill="#3b8686"><path d="m56 6h-2a3 3 0 0 0 -3 3v1h-1a1 1 0 0 0 0 2h1v3a1 1 0 0 0 2 0v-3h1a1 1 0 0 0 0-2h-1v-1a1 1 0 0 1 1-1h2a1 1 0 0 0 0-2z"/><path d="m59 2h-12a3 3 0 0 0 -3 3v12a3 3 0 0 0 3 3h12a3 3 0 0 0 3-3v-12a3 3 0 0 0 -3-3zm1 15a1 1 0 0 1 -1 1h-12a1 1 0 0 1 -1-1v-12a1 1 0 0 1 1-1h12a1 1 0 0 1 1 1z"/><path d="m59 33h-12a3 3 0 0 0 -3 3v12a3 3 0 0 0 3 3h12a3 3 0 0 0 3-3v-12a3 3 0 0 0 -3-3zm1 15a1 1 0 0 1 -1 1h-12a1 1 0 0 1 -1-1v-12a1 1 0 0 1 1-1h12a1 1 0 0 1 1 1z"/><path d="m53 38a4 4 0 1 0 4 4 4 4 0 0 0 -4-4zm0 6a2 2 0 1 1 2-2 2 2 0 0 1 -2 2z"/><path d="m24.47 13.85a1 1 0 0 0 .53.15 1 1 0 0 0 .45-.11l6-3a1 1 0 0 0 0-1.78l-6-3a1 1 0 0 0 -1.45.89v6a1 1 0 0 0 .47.85zm1.53-5.23 2.76 1.38-2.76 1.38z"/><path d="m27 19a9 9 0 1 0 -9-9 9 9 0 0 0 9 9zm0-16a7 7 0 1 1 -7 7 7 7 0 0 1 7-7z"/><path d="m37 23a1 1 0 0 0 .8-.4l3-4a1 1 0 0 0 -1.6-1.2l-3 4a1 1 0 0 0 .2 1.4 1 1 0 0 0 .6.2z"/><path d="m39.2 26.6a1 1 0 0 0 .8.4 1 1 0 0 0 .6-.2l4-3a1 1 0 1 0 -1.2-1.6l-4 3a1 1 0 0 0 -.2 1.4z"/><path d="m49 28.8a1 1 0 0 0 -1.2-.8l-5 1a1 1 0 0 0 .2 2h.2l5-1a1 1 0 0 0 .8-1.2z"/><path d="m3 29h12a1 1 0 0 0 1-1v-16a1 1 0 0 0 -1-1h-12a1 1 0 0 0 -1 1v16a1 1 0 0 0 1 1zm1-16h10v14h-10z"/><path d="m11 15h-2a1 1 0 0 0 0 2h2a1 1 0 0 0 0-2z"/><path d="m11 19h-4a1 1 0 0 0 0 2h4a1 1 0 0 0 0-2z"/><path d="m11 23h-4a1 1 0 0 0 0 2h4a1 1 0 0 0 0-2z"/><path d="m33.12 23.5a1 1 0 0 0 -.69-.48 1 1 0 0 0 -.82.21l-10.61 8.77h-15a1 1 0 0 0 -1 1v21h-2a1 1 0 0 0 -1 1v2a5 5 0 0 0 5 5h26a5 5 0 0 0 5-5v-2a1 1 0 0 0 -1-1h-2v-13.11l5.6-2.1a1 1 0 0 0 .59-.6 1 1 0 0 0 -.07-.83zm-9.53 21.67h.08l2 3.45a1 1 0 0 1 .1.76 1 1 0 0 1 -.47.6 1 1 0 0 1 -1.36-.36l-2-3.47zm-1.8-1.28-3.46 2a2 2 0 0 1 -1.52.2 2 2 0 0 1 -1.21-.93l-2-3.46a2 2 0 0 1 .73-2.7l3.46-2 2 3.47zm-9.42-.33 1 1.73-.87.5a1 1 0 0 1 -.76.1 1 1 0 0 1 -.61-.46 1 1 0 0 1 -.1-.76 1 1 0 0 1 .47-.61zm23.63 13.44a3 3 0 0 1 -3 3h-2v-1a1 1 0 0 0 -2 0v1h-18v-1a1 1 0 0 0 -2 0v1h-2a3 3 0 0 1 -3-3v-1h32zm-3-3h-26v-20h11.53l-.94.77-4.26 2.46a4 4 0 0 0 -1.84 4.53l-1 .57a3 3 0 0 0 .72 5.5 3 3 0 0 0 .78.1 3.06 3.06 0 0 0 1.5-.4l1-.57a3.88 3.88 0 0 0 1.8 1.04 3.79 3.79 0 0 0 1.05.14 3.94 3.94 0 0 0 2-.54l.87-.5 2 3.47a3 3 0 0 0 4.09 1.1 3 3 0 0 0 1.1-4.1l-1.82-3.17 7.42-2.76zm-9.4-11-2.07-3.59-2.08-3.6 12.55-10.29 6.82 11.81z"/></g></svg>