<?xml version="1.0"?>
<svg xmlns="http://www.w3.org/2000/svg" xmlns:xlink="http://www.w3.org/1999/xlink" version="1.1" id="Capa_1" x="0px" y="0px" viewBox="0 0 512.001 512.001" style="enable-background:new 0 0 512.001 512.001;" xml:space="preserve" width="512px" height="512px" class=""><g><g>
	<g>
		<path d="M436.088,33.927c-18.482-18.482-48.556-18.48-67.038,0c-15.264,15.264-17.909,38.429-7.96,56.447l-37.357,40.601    c5.593,10.19,8.94,21.774,9.404,34.085l50.028-54.374c6.155,2.754,12.777,4.141,19.404,4.141c12.139,0,24.277-4.621,33.519-13.862    C454.57,82.483,454.57,52.409,436.088,33.927z" data-original="#000000" class="active-path" data-old_color="#000000" fill="#555555"/>
	</g>
</g><g>
	<g>
		<path d="M150.911,90.373c9.949-18.017,7.304-41.182-7.96-56.447c-18.482-18.482-48.556-18.483-67.038,0    c-18.482,18.482-18.482,48.556,0,67.038c9.241,9.241,21.38,13.862,33.519,13.862c6.626,0,13.249-1.387,19.404-4.141l50.029,54.373    c0.464-12.311,3.811-23.894,9.404-34.085L150.911,90.373z" data-original="#000000" class="active-path" data-old_color="#000000" fill="#555555"/>
	</g>
</g><g>
	<g>
		<path d="M176.41,393.917c-8.64-5.999-14.86-15.238-16.893-25.946l-30.681,33.345c-17.431-7.798-38.637-4.565-52.923,9.721    c-18.482,18.482-18.482,48.556,0,67.038c9.241,9.241,21.38,13.862,33.519,13.862c12.14,0,24.278-4.621,33.52-13.862    c15.264-15.264,17.909-38.429,7.96-56.446L176.41,393.917z" data-original="#000000" class="active-path" data-old_color="#000000" fill="#555555"/>
	</g>
</g><g>
	<g>
		<path d="M436.088,411.037c-14.286-14.286-35.492-17.518-52.922-9.721l-30.682-33.345c-2.034,10.708-8.254,19.947-16.893,25.946    l25.498,27.712c-9.948,18.017-7.304,41.182,7.96,56.446c9.241,9.241,21.38,13.862,33.52,13.862    c12.139,0,24.277-4.621,33.519-13.862C454.57,459.593,454.57,429.519,436.088,411.037z" data-original="#000000" class="active-path" data-old_color="#000000" fill="#555555"/>
	</g>
</g><g>
	<g>
		<path d="M92.354,241.001c-2.248-6.773-6.05-13.138-11.431-18.519C62.442,204,32.368,203.999,13.885,222.481    C4.931,231.436,0,243.34,0,256.002c0,12.661,4.931,24.565,13.885,33.519c9.241,9.241,21.38,13.862,33.519,13.862    c12.14,0,24.278-4.621,33.52-13.862c5.38-5.38,9.183-11.746,11.431-18.52h66.501c0.405-10.859,3.413-21.06,8.423-30H92.354z" data-original="#000000" class="active-path" data-old_color="#000000" fill="#555555"/>
	</g>
</g><g>
	<g>
		<path d="M498.115,222.482c-18.482-18.482-48.556-18.48-67.038,0c-5.38,5.38-9.183,11.746-11.431,18.519h-74.924    c5.01,8.94,8.019,19.141,8.423,30h66.501c2.248,6.773,6.05,13.139,11.431,18.52c9.241,9.241,21.38,13.862,33.52,13.862    c12.139,0,24.277-4.621,33.519-13.861c8.954-8.954,13.885-20.858,13.885-33.52C512,243.34,507.069,231.436,498.115,222.482z" data-original="#000000" class="active-path" data-old_color="#000000" fill="#555555"/>
	</g>
</g><g>
	<g>
		<path d="M290.555,237.015c-10.405,5.231-22.137,8.195-34.555,8.195c-12.418,0-24.15-2.964-34.555-8.195    c-18.341,2.035-32.654,17.624-32.654,36.499v86.822c0,5.991,4.874,10.865,10.865,10.865h112.688    c5.991,0,10.865-4.874,10.865-10.865v-86.822C323.209,254.639,308.896,239.051,290.555,237.015z" data-original="#000000" class="active-path" data-old_color="#000000" fill="#555555"/>
	</g>
</g><g>
	<g>
		<circle cx="256" cy="168.001" r="47.21" data-original="#000000" class="active-path" data-old_color="#000000" fill="#555555"/>
	</g>
</g></g> </svg>
