<svg height="462pt" viewBox="-5 0 462 462.00304" width="462pt" xmlns="http://www.w3.org/2000/svg" xmlns:xlink="http://www.w3.org/1999/xlink"><linearGradient id="a"><stop offset="0" stop-color="#00efd1"/><stop offset="1" stop-color="#00acea"/></linearGradient><linearGradient id="b" gradientUnits="userSpaceOnUse" x1="104.48952" x2="104.48952" xlink:href="#a" y1="-2.996961" y2="471.437039"/><linearGradient id="c" gradientUnits="userSpaceOnUse" x1="326.52952" x2="326.52952" xlink:href="#a" y1="-2.996961" y2="471.437039"/><linearGradient id="d" gradientUnits="userSpaceOnUse" x1="321.25552" x2="321.25552" xlink:href="#a" y1="-2.996961" y2="471.437039"/><linearGradient id="e" gradientUnits="userSpaceOnUse" x1="110.74552" x2="110.74552" xlink:href="#a" y1="-2.996961" y2="471.437039"/><path d="m104.488281 218.980469c57.707031 0 104.488281-46.78125 104.488281-104.488281 0-57.707032-46.78125-104.488282-104.488281-104.488282s-104.48437475 46.777344-104.488281 104.484375c.0664062 57.683594 46.808594 104.425781 104.488281 104.492188zm0-192.976563c48.871094 0 88.488281 39.617188 88.488281 88.488282 0 48.871093-39.617187 88.488281-88.488281 88.488281-48.871093 0-88.488281-39.621094-88.488281-88.492188.054688-48.847656 39.640625-88.429687 88.488281-88.484375zm0 0" fill="url(#b)"/><path d="m104.488281 159.660156c-9.375-.011718-16.976562-7.609375-16.988281-16.988281 0-4.417969-3.582031-8-8-8s-8 3.582031-8 8c.023438 15.324219 10.582031 28.625 25.5 32.121094v7.210937c0 4.417969 3.582031 8 8 8s8-3.582031 8-8v-7.460937c16-4.277344 26.347656-19.746094 24.191406-36.164063-2.152344-16.417968-16.144531-28.691406-32.703125-28.695312-9.382812.003906-16.988281-7.605469-16.988281-16.984375 0-9.382813 7.605469-16.988281 16.988281-16.988281 9.382813-.003907 16.988281 7.605468 16.988281 16.984374 0 4.421876 3.582032 8 8 8 4.417969 0 8-3.578124 8-8-.019531-14.929687-10.054687-27.996093-24.476562-31.867187v-7.824219c0-4.417968-3.582031-8-8-8s-8 3.582032-8 8v7.574219c-16.320312 3.800781-27.199219 19.242187-25.285156 35.890625 1.917968 16.652344 16.015625 29.21875 32.773437 29.214844 9.332031.074218 16.859375 7.65625 16.859375 16.988281s-7.527344 16.917969-16.859375 16.988281zm0 0" fill="url(#b)"/><path d="m331.925781 215.273438c-3.003906-2.609376-7.472656-2.613282-10.480469-.007813l-117.625 101.863281c-2.523437 2.15625-3.425781 5.667969-2.253906 8.773438 1.175782 3.109375 4.167969 5.148437 7.492188 5.101562h18.941406v121.332032c-.039062 2.089843.757812 4.109374 2.210938 5.613281 1.453124 1.5 3.449218 2.359375 5.539062 2.386719l179.5 1.667968h.074219c2.0625-.003906 4.035156-.839844 5.46875-2.316406 1.472656-1.519531 2.269531-3.570312 2.207031-5.683594v-123h21c3.328125.039063 6.324219-2.007812 7.496094-5.121094 1.175781-3.109374.273437-6.625-2.25-8.792968zm-5.25 16.457031 95.910157 83.273437h-192.070313zm22.324219 213.65625-44-.402344v-48.980469h44zm58 .542969-42-.402344v-57.949219c0-4.417969-3.945312-7.574219-8.363281-7.574219h-59.257813c-4.417968 0-8.378906 3.15625-8.378906 7.574219v57.257813l-45-.425782v-113.40625h163zm0 0" fill="url(#c)"/><path d="m304.472656 146.9375c2.265625 2.296875 5.695313 2.988281 8.671875 1.746094 2.972657-1.242188 4.898438-4.167969 4.855469-7.390625v-33.246094c15-.441406 44.453125 4.339844 67.933594 43.390625l4.054687 6.699219c1.726563 2.867187 5.050781 4.363281 8.339844 3.753906 3.289063-.613281 5.855469-3.203125 6.433594-6.5l1.34375-7.699219c.019531-.121094.035156-.238281.054687-.359375 1.339844-8.9375 5.957032-55.1875-34.8125-89.078125-1.378906-1.265625-6.546875-5.585937-15.855468-9.742187-11.023438-4.929688-23.492188-7.769531-37.492188-8.480469v-32.027344c.035156-3.222656-1.886719-6.144531-4.859375-7.386718-2.972656-1.246094-6.402344-.5664068-8.675781 1.714843l-66.625 66.308594c-3.128906 3.121094-3.132813 8.1875-.015625 11.3125zm-2.472656-119.691406v20.609375c.058594 4.476562 3.671875 8.089843 8.144531 8.148437h1c33.394531 0 48.820313 13.59375 49.351563 14.074219.152344.148437.308594.25.472656.386719 23.386719 19.363281 28.945312 44.007812 29.847656 59.636718-12.484375-16.261718-27.347656-27.488281-44.328125-33.441406-8.621093-3.023437-17.6875-4.574218-26.824219-4.589844-3.636718-.015624-7.273437.253907-10.867187.804688-3.894531.617188-6.769531 3.957031-6.800781 7.898438v21.140624l-47.324219-47.574218zm0 0" fill="url(#d)"/><path d="m127.527344 305.070312c-2.261719-2.296874-5.691406-2.988281-8.667969-1.746093-2.976563 1.242187-4.898437 4.164062-4.859375 7.390625v33.246094c-15 .445312-44.449219-4.34375-67.929688-43.394532l-4.054687-6.699218c-1.726563-2.867188-5.050781-4.359376-8.339844-3.75-3.289062.613281-5.851562 3.203124-6.429687 6.496093l-1.34375 7.699219c-.019532.121094-.039063.242188-.058594.363281-1.339844 8.933594-5.957031 55.183594 34.8125 89.078125 1.378906 1.261719 6.546875 5.585938 15.855469 9.742188 11.023437 4.925781 23.488281 7.769531 37.488281 8.476562v32.03125c-.027344 3.21875 1.890625 6.136719 4.859375 7.386719.960937.402344 1.992187.613281 3.03125.613281 2.109375 0 4.136719-.839844 5.628906-2.328125l66.636719-66.3125c3.128906-3.117187 3.136719-8.183593.019531-11.3125zm2.472656 119.6875v-20.609374c-.054688-4.472657-3.667969-8.089844-8.140625-8.144532h-1c-33.402344 0-48.820313-13.59375-49.351563-14.078125-.152343-.144531-.308593-.25-.472656-.382812-23.394531-19.363281-28.949218-44.011719-29.855468-59.640625 12.488281 16.265625 27.351562 27.492187 44.332031 33.441406 12.074219 4.292969 25.007812 5.589844 37.691406 3.785156 3.890625-.617187 6.769531-3.953125 6.800781-7.894531v-21.136719l47.332032 47.566406zm0 0" fill="url(#e)"/></svg>