<svg height="440pt" viewBox="0 -65 440.00022 440" width="440pt" xmlns="http://www.w3.org/2000/svg"><path d="m422 31.050781c0 16.015625-12.984375 29-29 29s-29-12.984375-29-29 12.984375-29 29-29 29 12.984375 29 29zm0 0" fill="#f8ec7d"/><path d="m404.558594 48.101562c.003906 1.925782-.109375 3.855469-.339844 5.769532-22.328125-2.710938-35.757812-20.378906-39.867188-26.640625 5.480469-6.765625 9.714844-14.449219 12.5-22.699219 16.910157 7.914062 27.710938 24.898438 27.707032 43.570312zm0 0" fill="#e2d574"/><g fill="#f8ec7d"><path d="m376 4.140625c.289062.128906.570312.257813.851562.390625-2.785156 8.25-7.019531 15.933594-12.5 22.699219-21.070312 25.769531-53.300781 26.648437-55.652343 26.679687-1.773438-14.632812 3.253906-29.273437 13.640625-39.730468 14.078125-14.1406255 35.421875-18.132813 53.660156-10.039063zm0 0"/><path d="m440 195.949219v76.652343h-85v-78.953124c.308594 0 .640625-.007813.949219-.039063 6.074219-.515625 11.101562-4.925781 12.402343-10.878906l13.1875-56.582031c33.859376 5.96875 58.527344 35.417968 58.460938 69.800781zm0 0"/><path d="m404.21875 53.871094c-2.921875 24.148437-23.414062 42.320312-47.742188 42.328125-24.328124.011719-44.832031-18.140625-47.777343-42.289063 2.351562-.03125 34.582031-.910156 55.652343-26.679687 4.109376 6.261719 17.539063 23.929687 39.867188 26.640625zm0 0"/></g><path d="m356 35.777344c-20.316406 17.429687-45.242188 18.101562-47.300781 18.132812 2.914062 23.972656 23.152343 42.066406 47.300781 42.277344zm0 0" fill="#e2d574"/><path d="m355 193.648438h-.019531c-6.445313-.132813-11.960938-4.660157-13.339844-10.957032l-13.011719-55.78125c5.304688-1.234375 10.734375-1.855468 16.179688-1.851562h24.300781c4.167969 0 8.328125.363281 12.429687 1.089844l-13.1875 56.582031c-1.300781 5.953125-6.328124 10.363281-12.402343 10.878906-.308594.03125-.640625.039063-.949219.039063zm0 0" fill="#e48e66"/><path d="m355 272.03125v.570312h-52.21875v-39.179687c.058594-21.804687-9.953125-42.414063-27.132812-55.839844l.300781-.371093c7.191406-25.046876 27.328125-44.273438 52.679687-50.300782l13.011719 55.78125c1.378906 6.296875 6.894531 10.824219 13.339844 10.957032h.019531zm0 0" fill="#e2d574"/><path d="m302.78125 272.601562v37.46875h-80.78125v-59.46875l26.441406-86.132812c31.910156 7.601562 54.40625 36.148438 54.339844 68.953125zm0 0" fill="#e48e66"/><path d="m253.671875 50.949219c16.289063 16.191406 18.863281 41.640625 6.144531 60.769531-12.714844 19.125-37.179687 26.597656-58.414062 17.839844-21.230469-8.757813-33.316406-31.304688-28.851563-53.832032 4.464844-22.53125 24.230469-38.765624 47.199219-38.765624 12.71875-.03125 24.921875 5 33.921875 13.988281zm0 0" fill="#e48e66"/><path d="m248.441406 164.46875-26.441406 86.132812-26.570312-86.570312-.078126-.460938c4.042969-.691406 8.136719-1.039062 12.238282-1.039062h24.308594c5.570312-.003906 11.125.644531 16.542968 1.9375zm0 0" fill="#f8ec7d"/><path d="m222 310.03125v.039062h-85.289062v-76.648437c-.0625-34.453125 24.695312-63.945313 58.640624-69.851563l.078126.460938 26.570312 86.570312zm0 0" fill="#e48e66"/><path d="m163.539062 176.710938.53125.6875c-17.292968 13.441406-27.394531 34.121093-27.359374 56.023437v39.179687h-54.710938v-50l26.488281-96.292968c26.375 5.105468 47.648438 24.582031 55.050781 50.402344zm0 0" fill="#f8ec7d"/><path d="m116.960938 13.992188c9.105468 9.007812 14.214843 21.296874 14.179687 34.109374-.183594 12.800782-5.335937 25.035157-14.371094 34.109376-8.925781 8.976562-21.070312 14.011718-33.730469 13.988281-21.75 0-40.792968-14.601563-46.441406-35.609375-5.648437-21.007813 3.503906-43.1875 22.320313-54.101563 18.816406-10.910156 42.617187-7.835937 58.042969 7.503907zm0 0" fill="#f8ec7d"/><path d="m108.488281 126.308594-26.488281 96.292968-26.390625-95.902343c5.019531-1.097657 10.144531-1.644531 15.28125-1.640625h24.300781c4.460938 0 8.914063.417968 13.296875 1.25zm0 0" fill="#e48e66"/><path d="m82 272.03125v.570312h-82v-76.652343c-.0546875-33.285157 23.097656-62.113281 55.609375-69.25l26.390625 95.902343zm0 0" fill="#e2d574"/><path d="m405 183.03125h-17c-4.96875 0-9 4.027344-9 9 0 4.96875 4.03125 9 9 9h17c4.96875 0 9-4.03125 9-9 0-4.972656-4.03125-9-9-9zm0 0" fill="#e48e66"/><path d="m272 223.03125h-17c-4.96875 0-9 4.027344-9 9 0 4.96875 4.03125 9 9 9h17c4.96875 0 9-4.03125 9-9 0-4.972656-4.03125-9-9-9zm0 0" fill="#f8ec7d"/><path d="m126 180.03125h-13c-4.96875 0-9 4.027344-9 9 0 4.96875 4.03125 9 9 9h13c4.96875 0 9-4.03125 9-9 0-4.972656-4.03125-9-9-9zm0 0" fill="#e48e66"/><path d="m48.921875 14.179688c-13.695313 13.785156-17.753906 34.449218-10.292969 52.386718 7.464844 17.9375 24.984375 29.628906 44.410156 29.632813v-96.199219c-12.8125-.03125-25.101562 5.074219-34.117187 14.179688zm0 0" fill="#e2d574"/></svg>